<svg id="Layer_1" data-name="Layer 1" xmlns="http://www.w3.org/2000/svg" xmlns:xlink="http://www.w3.org/1999/xlink" viewBox="0 0 1358 274.8"><defs><style>.cls-1{fill:none;}.cls-2{fill:#fff;}.cls-3{clip-path:url(#clip-path);}.cls-4{fill:url(#linear-gradient);}.cls-5{clip-path:url(#clip-path-2);}.cls-6{fill:url(#linear-gradient-2);}.cls-7{clip-path:url(#clip-path-3);}.cls-8{fill:url(#linear-gradient-3);}.cls-9{clip-path:url(#clip-path-4);}.cls-10{fill:url(#linear-gradient-4);}.cls-11{clip-path:url(#clip-path-5);}.cls-12{fill:url(#linear-gradient-5);}</style><clipPath id="clip-path" transform="translate(-6520.5 -7062.1)"><polygon class="cls-1" points="7439.16 7149.74 7439.16 7249.12 7498.93 7249.12 7498.93 7235.49 7452.8 7235.49 7452.8 7187.35 7452.8 7179.69 7452.8 7149.74 7439.16 7149.74"/></clipPath><linearGradient id="linear-gradient" x1="6200.49" y1="8200.51" x2="6201.49" y2="8200.51" gradientTransform="translate(940475.95 -710308.02) rotate(90) scale(114.57)" gradientUnits="userSpaceOnUse"><stop offset="0" stop-color="#27e9e1"/><stop offset="0.01" stop-color="#27e9e1"/><stop offset="1" stop-color="#27aae1"/></linearGradient><clipPath id="clip-path-2" transform="translate(-6520.5 -7062.1)"><path class="cls-1" d="M7546.9,7199.43c0-20.58,13.79-37.06,34.22-37.06,20.6,0,34.37,16.62,34.37,37.2s-13.77,37.06-34.37,37.06c-20.43,0-34.22-16.62-34.22-37.2m-13.91,0c0,28,20.18,50.68,48.13,50.68,28.12,0,48.28-22.56,48.28-50.54s-20.16-50.69-48.28-50.69c-27.95,0-48.13,22.59-48.13,50.55"/></clipPath><linearGradient id="linear-gradient-2" x1="6200.49" y1="8200.51" x2="6201.49" y2="8200.51" gradientTransform="translate(940588.1 -710308.02) rotate(90) scale(114.57)" xlink:href="#linear-gradient"/><clipPath id="clip-path-3" transform="translate(-6520.5 -7062.1)"><path class="cls-1" d="M7683,7199.43c0-20.58,13.78-37.06,34.23-37.06s34.36,16.62,34.36,37.2-13.77,37.06-34.36,37.06S7683,7220,7683,7199.43m-13.91,0c0,28,20.18,50.68,48.14,50.68s48.27-22.56,48.27-50.54-20.16-50.69-48.27-50.69-48.14,22.59-48.14,50.55"/></clipPath><linearGradient id="linear-gradient-3" x1="6200.49" y1="8200.51" x2="6201.49" y2="8200.51" gradientTransform="translate(940724.22 -710308.02) rotate(90) scale(114.57)" xlink:href="#linear-gradient"/><clipPath id="clip-path-4" transform="translate(-6520.5 -7062.1)"><path class="cls-1" d="M7808.79,7149.74v13.49H7846c12.07,0,18.46,8.8,18.46,18.59s-6.54,18.47-18.46,18.47h-37.2v48.83h13.48v-35.35H7846c20,0,32.51-14.34,32.51-32s-12.2-32.08-32.51-32.08Z"/></clipPath><linearGradient id="linear-gradient-4" x1="6200.49" y1="8200.51" x2="6201.49" y2="8200.51" gradientTransform="translate(940850.55 -710308.02) rotate(90) scale(114.57)" xlink:href="#linear-gradient"/><clipPath id="clip-path-5" transform="translate(-6520.5 -7062.1)"><path class="cls-1" d="M6590.78,7127.27v0c-31.84,32.15-9.06,86.76,36.19,86.76h38.29a4.11,4.11,0,0,0,2.42-7.44l-19.55-14.21a4.11,4.11,0,0,1,2.42-7.44h27.36V7163.1c0-30.71-25.13-51-51.3-51a49.87,49.87,0,0,0-35.82,15.2"/></clipPath><linearGradient id="linear-gradient-5" x1="6200.32" y1="8200.51" x2="6201.49" y2="8200.51" gradientTransform="matrix(101.98, 0, 0, -101.98, -632252.18, 836364.64)" xlink:href="#linear-gradient"/></defs><title>thankloop-white</title><path class="cls-2" d="M6918.38,7163.23h-72v-13.49h72Zm-42.72,19.3h13.47v66.59h-13.47Z" transform="translate(-6520.5 -7062.1)"/><path class="cls-2" d="M7036.49,7192.76v56.36h-13.64V7206h-62.6v-56.23h13.48v43Zm-76.24,29.67h13.48v26.69h-13.48Zm76.24-46h-13.63v-26.7h13.63Z" transform="translate(-6520.5 -7062.1)"/><polygon class="cls-2" points="641.04 187.02 626.13 187.02 598.73 107.94 571.34 187.02 556.42 187.02 592.06 87.64 605.27 87.64 641.04 187.02"/><polygon class="cls-2" points="756.71 87.64 756.71 188.01 755.44 188.01 694.95 121.71 694.95 187.02 681.48 187.02 681.48 86.77 682.61 86.77 743.09 153.66 743.09 87.64 756.71 87.64"/><polygon class="cls-2" points="831.38 143.72 817.18 143.72 817.18 187.03 803.54 187.03 803.54 87.64 817.18 87.64 817.18 130.66 829.09 130.66 858.64 87.64 875.95 87.64 842.31 135.48 878.93 187.03 861.75 187.03 831.38 143.72"/><g class="cls-3"><rect class="cls-4" x="918.66" y="87.64" width="59.77" height="99.38"/></g><g class="cls-5"><rect class="cls-6" x="1012.49" y="86.78" width="96.4" height="101.24"/></g><g class="cls-7"><rect class="cls-8" x="1148.61" y="86.78" width="96.4" height="101.24"/></g><g class="cls-9"><rect class="cls-10" x="1288.29" y="87.64" width="69.71" height="99.37"/></g><path class="cls-2" d="M6688.84,7185h-38.28a4.11,4.11,0,0,0-2.42,7.44l19.54,14.21a4.11,4.11,0,0,1-2.42,7.44h-27.35v21.84c0,45.5,55.12,68.17,87.13,35.83,31.83-32.16,9.05-86.76-36.2-86.76" transform="translate(-6520.5 -7062.1)"/><g class="cls-11"><rect class="cls-12" x="38.43" y="49.97" width="118.98" height="101.98"/></g><path class="cls-2" d="M6657.9,7336.9c-75.77,0-137.4-61.65-137.4-137.4s61.63-137.4,137.4-137.4,137.4,61.63,137.4,137.4-61.64,137.4-137.4,137.4m0-268.25a131,131,0,0,0-130.85,130.85c0,72.15,58.7,130.85,130.85,130.85s130.85-58.7,130.85-130.85a131,131,0,0,0-130.85-130.85" transform="translate(-6520.5 -7062.1)"/></svg>