<?xml version="1.0" encoding="utf-8"?>
<!-- Generator: Adobe Illustrator 22.1.0, SVG Export Plug-In . SVG Version: 6.00 Build 0)  -->
<svg version="1.1" id="Layer_1" xmlns="http://www.w3.org/2000/svg" xmlns:xlink="http://www.w3.org/1999/xlink" x="0px" y="0px"
	 viewBox="0 0 38.8 38.8" style="enable-background:new 0 0 38.8 38.8;" xml:space="preserve">
<style type="text/css">
	.st0{fill:none;stroke:#000000;stroke-width:0.1597;}
	.st1{fill:url(#SVGID_1_);stroke:url(#SVGID_2_);stroke-width:0.1597;}
</style>
<path class="st0" d="M22.1,0.3c-0.5-0.1-1.3-0.1-2.1-0.2c-0.8,0-1.6,0-1.8,0 M7.3,4.4C5.7,5.6,3.9,7.7,2.8,9.5
	c-2.7,4.5-3.5,10-2.1,15c1.6,5.8,5.6,10.4,11.1,12.7c6.5,2.8,14,1.8,19.6-2.6c0.8-0.6,2.5-2.3,3.1-3.1c2.2-2.8,3.5-5.9,4.1-9.6
	c0.1-0.6,0.1-1.6,0.1-2.6c0-1-0.1-2-0.2-2.6C37.9,12.6,36.2,9,33.3,6c-0.7-0.7-2.2-2-3.1-2.6c-2.5-1.7-5.1-2.7-8.1-3.1 M18.2,0.1
	L15,0.6l-4.3,1.5L7.3,4.4 M18,17.6L18,17.6c-0.1,0.1-0.1,0.2-0.1,0.3c0,0.1,0,0.1,0.1,0.2c0.1,0.1,0.2,0.2,0.3,0.3
	c0.2,0.1,0.4,0.3,0.7,0.5c1,0.7,1.5,1.1,1.8,1.3c0.1,0.1,0.2,0.2,0.3,0.3c0.1,0.1,0.1,0.2,0.1,0.3 M18,17.6l2.8,3.7l0.1,0.1
	c0.1,0,0.1-0.1,0.2-0.2c0-0.1,0-0.2,0-0.3 M18,17.6l0.1-0.2l2.9,0c3.2,0,4.2,0.1,5.2,0.5l0-0.1l0,0.1c3.1,1.1,5.1,4.4,4.6,7.7
	c-0.5,3.5-3.5,6-6.9,6c-1.7,0-3-0.4-4.3-1.4c-1.3-1-2.2-2.3-2.6-3.9c-0.1-0.6-0.2-1.1-0.2-2.8l0-1.9L18,17.6z M21.1,20.9l-0.1,0
	L21.1,20.9C21.1,20.9,21.1,20.9,21.1,20.9z M7.7,5C6.9,5.6,5.4,7.1,4.9,7.8l0,0c-2.8,3.4-4.2,7.9-4.1,12.3c0.2,4.3,1.7,8.2,4.6,11.5
	c2.3,2.7,5.5,4.7,9.1,5.7c1.7,0.5,2.7,0.6,4.9,0.6c2.2,0,2.8-0.1,4.7-0.5c3.5-0.9,7-3.1,9.4-5.8c2.8-3.3,4.4-7.2,4.5-11.5
	c0.1-3.7-0.7-7-2.6-10.1c-3-5.1-8.3-8.5-14.3-9.1C16.4,0.4,11.4,1.9,7.7,5"/>
<linearGradient id="SVGID_1_" gradientUnits="userSpaceOnUse" x1="-235.3928" y1="121.4159" x2="-245.4803" y2="121.4159" gradientTransform="matrix(1.3514 0 0 -1.3514 338.2501 178.5667)">
	<stop  offset="0" style="stop-color:#27CAE1"/>
	<stop  offset="1" style="stop-color:#27E9E1"/>
</linearGradient>
<linearGradient id="SVGID_2_" gradientUnits="userSpaceOnUse" x1="-236.5345" y1="119.1131" x2="-244.2597" y2="125.6891" gradientTransform="matrix(1.3514 0 0 -1.3514 338.2501 178.5667)">
	<stop  offset="0" style="stop-color:#27B9E1"/>
	<stop  offset="1" style="stop-color:#27E9E1"/>
</linearGradient>
<path class="st1" d="M17.6,18L17.6,18c0.1-0.4,0.4-0.6,0.5-0.7 M17.6,18l0.5-0.6 M17.6,18L17.6,18C17.6,18,17.6,18,17.6,18
	c0,0.1,0,0.2,0.1,0.3c0,0.1,0.1,0.2,0.2,0.3c0.3,0.2,0.7,0.6,1.7,1.2c0.1,0,0.1,0.1,0.2,0.1c0.2,0.1,0.3,0.2,0.4,0.3
	c0.2,0.1,0.3,0.2,0.4,0.3c0.1,0.1,0.1,0.2,0.2,0.3c0,0.1,0,0.2,0,0.4 M17.6,18l0.1,0c0,0,0,0,0,0c0,0.3,0,0.4,2,1.7
	c0.1,0,0.1,0.1,0.2,0.1c0.9,0.6,1.2,0.8,1.1,1.4 M18.1,17.3L18.1,17.3 M18.1,17.3L18.1,17.3L18.1,17.3 M18.1,17.3
	C18.1,17.3,18.2,17.3,18.1,17.3c0.1,0,0.1,0,0.1,0c0,0,0.1,0,0.1,0c0.1,0,0.2,0,0.3,0c0.1,0,0.1,0,0.2,0c0.4,0,0.9,0,1.4,0l0,0v0
	l1.9,0 M18.2,17.4c0,0,0.2,0,0.5,0c0.4,0,0.9,0,1.6,0l1.9,0l0-0.1 M22.1,17.3l0.1,0l-0.1-2.1 M22.1,17.3L22,15.2 M22,15.2
	C22,15.2,22,15.2,22,15.2l0.1,0 M22,15.2L22,15.2l0.1,0 M22,15.2c-0.1-1.7-0.1-2.1-0.3-2.7l0.1,0l-0.1,0C21.3,11,20.3,9.6,19,8.7
	c-1.4-0.9-2.6-1.3-4.4-1.2c-3.4,0.1-6.3,2.8-6.7,6.2c-0.4,3.3,1.7,6.5,4.8,7.5l0,0.1l0-0.1c1,0.3,1.9,0.4,5.1,0.3l2.9-0.1
	 M22.2,15.2c-0.1-1.7-0.1-2.2-0.3-2.7c-0.5-1.6-1.4-2.9-2.8-3.9c-1.4-0.9-2.7-1.3-4.4-1.3c-3.5,0.1-6.4,2.8-6.8,6.3
	c-0.4,3.3,1.7,6.6,4.9,7.6c1,0.3,2,0.4,5.2,0.3l2.9-0.1 M20.8,21.5L20.8,21.5l-0.1-0.1 M20.8,21.5l0.2-0.2 M20.8,21.5l0-0.1l-0.1,0
	 M20.8,21.4l0.1-0.2 M21,21.3l-0.1,0c0,0,0,0,0,0 M21,21.3L21,21.3l-0.1,0"/>
</svg>
