<svg width="300" height="300" viewBox="0 0 116 116" fill="none" xmlns="http://www.w3.org/2000/svg">
<mask id="mask0" mask-type="alpha" maskUnits="userSpaceOnUse" x="0" y="0" width="116" height="116">
<path d="M66.2518 0.575494L66.1786 1.07011C64.8305 0.870721 62.3403 0.691669 59.9494 0.589347C57.5465 0.486509 55.3156 0.464549 54.465 0.565052C53.9632 0.624452 52.445 0.793934 51.0915 0.941652C40.9561 2.04855 30.5373 6.44412 21.9057 13.2676L21.5957 12.8754L21.9057 13.2676C17.2844 16.9208 11.9057 23.1037 8.71787 28.4311C0.662278 41.8936 -1.60017 58.1229 2.50377 72.9602M66.2518 0.575494L2.50377 72.9602M66.2518 0.575494L66.1786 1.07011C74.9995 2.37459 82.6988 5.34576 90.2197 10.3491C92.8604 12.106 97.4932 15.9666 99.4603 18.0471C107.895 26.9682 113.157 37.6874 115.032 49.7669C115.309 51.5464 115.469 54.5643 115.496 57.5873C115.523 60.6114 115.416 63.5893 115.172 65.2907C113.611 76.1497 109.687 85.4007 103.073 93.8232C101.258 96.1348 96.2206 101.166 93.8561 103.028C77.1892 116.156 54.7786 119.168 35.4554 110.883C19.2655 103.942 7.24866 90.1144 2.50377 72.9602M66.2518 0.575494L2.02186 73.0935L2.50377 72.9602M54.04 52.7466L54.0399 52.7467C53.7816 53.0748 53.6656 53.2913 53.6302 53.46C53.6019 53.5948 53.615 53.7455 53.7628 53.9795C53.9231 54.2332 54.2223 54.5515 54.7318 54.9827C55.2357 55.4092 55.9141 55.9207 56.8039 56.5651L56.5106 56.9701L56.8039 56.5652C59.6829 58.6507 61.2248 59.7781 62.0514 60.5135C62.4668 60.8831 62.7408 61.1869 62.9105 61.4958C63.0893 61.8213 63.1304 62.1135 63.1541 62.3962M54.04 52.7466L62.2668 63.6333L62.5017 64.0747C62.778 63.9277 62.9842 63.7075 63.0894 63.3842C63.1827 63.0975 63.1849 62.7621 63.1541 62.3962M54.04 52.7466L54.4273 52.2544L63.0492 52.256C72.7072 52.2575 75.4215 52.5101 78.4259 53.6L78.5964 53.1299L78.4259 53.6C87.5744 56.9181 93.3761 66.6976 91.9444 76.4011C90.4267 86.6863 81.6841 94.2954 71.3949 94.3009C66.2473 94.3035 62.5014 93.1005 58.5396 90.1829C54.6424 87.3128 51.9016 83.2362 50.7183 78.5504C50.2825 76.8252 50.1626 75.434 50.0504 70.3752L49.9258 64.7502L54.04 52.7466ZM63.1541 62.3962L62.6559 62.438L63.1541 62.396C63.1541 62.396 63.1541 62.3961 63.1541 62.3962ZM43.2195 111.718L43.356 111.237L43.2195 111.718C48.3043 113.161 51.4055 113.539 58.0376 113.538C64.5523 113.536 66.5555 113.31 71.9964 111.951C82.4213 109.347 93.028 102.764 100.135 94.4915C108.629 84.6031 113.251 72.8819 113.703 60.0661C114.093 49.0226 111.61 39.1979 106.035 29.7288C96.9624 14.318 81.2818 4.34079 63.3121 2.53926C49.0793 1.11226 34.0064 5.6899 22.8353 14.8289L22.8353 14.8289C20.6975 16.5779 16.1973 21.1023 14.5198 23.1894L14.5198 23.1895C6.22823 33.5078 1.86104 46.7674 2.37193 60.0677C2.86449 72.8921 7.54095 84.6827 16.0488 94.5612C22.9774 102.606 32.6707 108.724 43.2195 111.718Z" stroke="black"/>
<path d="M52.5334 53.4315L52.5544 53.3445C52.8598 52.0785 53.6911 51.5169 54.0876 51.2885L52.5334 53.4315ZM52.5334 53.4315L52.5439 53.5204M52.5334 53.4315L52.5439 53.5204M52.5439 53.5204C52.5462 53.54 52.5485 53.5601 52.5508 53.5805C52.5764 53.8049 52.6069 54.0714 52.7371 54.3543C52.8801 54.6646 53.1226 54.9595 53.5126 55.3135C54.2816 56.0115 55.7779 57.0723 58.7265 59.0602C58.9348 59.2006 59.1325 59.3332 59.3203 59.4591C59.8322 59.8023 60.2702 60.096 60.6476 60.3647C61.1635 60.7321 61.5354 61.0316 61.7998 61.3158C62.0577 61.5929 62.2038 61.8454 62.2787 62.1199C62.3484 62.3756 62.3652 62.6828 62.3151 63.0928L62.0199 63.495L53.4028 63.784C43.7503 64.1078 41.0291 63.9468 37.9896 62.9588L37.9896 62.9588C28.7343 59.9507 22.606 50.3722 23.7095 40.626C24.8793 30.2956 33.3603 22.3963 43.6434 22.044C48.788 21.8681 52.5723 22.9442 56.6303 25.7267C60.6221 28.4638 63.4989 32.4457 64.8397 37.089L65.32 36.9503L64.8397 37.089C65.3332 38.7981 65.5 40.1842 65.7827 45.2325L66.0084 51.2151L60.5548 51.1474L60.5355 51.1472M52.5439 53.5204L60.5355 51.1472M60.5355 51.1472L60.5163 51.1484M60.5355 51.1472L60.5163 51.1484M60.5163 51.1484C58.838 51.2571 57.3653 51.2396 56.2751 51.2126M60.5163 51.1484L56.2751 51.2126M56.2751 51.2126C56.0837 51.2079 55.902 51.2028 55.7325 51.198M56.2751 51.2126L55.7325 51.198M55.7325 51.198C55.4245 51.1893 55.1563 51.1818 54.9415 51.1796M55.7325 51.198L54.9415 51.1796M54.9415 51.1796C54.7746 51.1779 54.6255 51.1791 54.5056 51.1867M54.9415 51.1796L54.5056 51.1867M54.5056 51.1867C54.4459 51.1905 54.3833 51.1964 54.3242 51.2069M54.5056 51.1867L54.3242 51.2069M54.3242 51.2069C54.2768 51.2153 54.1814 51.2344 54.0877 51.2884L54.3242 51.2069Z" fill="url(#paint0_linear)" stroke="url(#paint1_linear)"/>
</mask>
<g mask="url(#mask0)">
<rect x="19" y="21" width="76" height="74" fill="#70A9FF"/>
</g>
<defs>
<linearGradient id="paint0_linear" x1="63.156" y1="43.0941" x2="22.1752" y2="43.0941" gradientUnits="userSpaceOnUse">
<stop stop-color="#27CAE1"/>
<stop offset="1" stop-color="#27E9E1"/>
</linearGradient>
<linearGradient id="paint1_linear" x1="58.7467" y1="53.9801" x2="27.3811" y2="27.2618" gradientUnits="userSpaceOnUse">
<stop stop-color="#27B9E1"/>
<stop offset="1" stop-color="#27E9E1"/>
</linearGradient>
</defs>
</svg>
