<svg width="50" height="50" viewBox="0 0 37 37" fill="none" xmlns="http://www.w3.org/2000/svg">
<path d="M7.57466 4.97432L7.63667 5.05277C6.19696 6.19087 4.52333 8.11485 3.53076 9.77362C1.02317 13.9643 0.318674 19.0165 1.59641 23.6361C3.07338 28.9757 6.81418 33.2805 11.8542 35.4413C17.8699 38.0204 24.8463 37.0825 30.0344 32.9961C30.7716 32.4154 32.338 30.8511 32.9041 30.1301C34.9627 27.5085 36.1843 24.6284 36.6701 21.249C36.7467 20.7166 36.7797 19.7889 36.7713 18.8499C36.7629 17.9111 36.7132 16.9713 36.6268 16.415C36.043 12.655 34.4049 9.31813 31.7797 6.54142C31.166 5.89244 29.725 4.69168 28.9023 4.14436C26.5616 2.58716 24.1645 1.66208 21.4188 1.25604L21.4334 1.15723L21.4188 1.25604C20.9974 1.19371 20.2221 1.13806 19.4799 1.10629C18.7353 1.07443 18.0382 1.06727 17.769 1.09909L7.57466 4.97432ZM7.57466 4.97432L7.63667 5.05277C10.3229 2.92922 13.566 1.56064 16.7226 1.21591C17.1426 1.17006 17.6135 1.11749 17.769 1.09909L7.57466 4.97432ZM17.6002 17.314L17.6002 17.314C17.519 17.4173 17.4761 17.4928 17.4624 17.5582C17.4501 17.6169 17.4591 17.6781 17.5109 17.7602C17.5653 17.8463 17.6634 17.9495 17.8226 18.0842C17.9807 18.218 18.1927 18.3778 18.469 18.5779C19.3638 19.2261 19.8393 19.5739 20.0932 19.7998C20.2206 19.9131 20.3 20.0024 20.3481 20.09C20.3981 20.1809 20.41 20.2624 20.4171 20.3475M17.6002 17.314L20.1967 20.7268L20.2437 20.8151C20.3182 20.7755 20.3718 20.7178 20.3996 20.6324C20.425 20.5543 20.4266 20.4594 20.4171 20.3475M17.6002 17.314L17.737 17.1402L20.4396 17.1407C23.4353 17.1412 24.2875 17.2191 25.2304 17.5611L25.2645 17.4671L25.2304 17.5611C28.0945 18.5999 29.9097 21.6602 29.4616 24.6973C28.9867 27.9159 26.2506 30.2978 23.0296 30.2995C21.4209 30.3003 20.2468 29.9235 19.0073 29.0107C17.7875 28.1124 16.9296 26.8364 16.5592 25.3697C16.4222 24.8274 16.3851 24.3896 16.3503 22.8203L16.3104 21.0199L17.6002 17.314ZM20.4171 20.3475L20.3175 20.3558L20.4171 20.3474C20.4171 20.3474 20.4171 20.3474 20.4171 20.3475ZM5.42172 8.2098L5.42171 8.20981C2.85685 11.4016 1.50576 15.5036 1.66381 19.6181C1.81618 23.5854 3.26266 27.2326 5.89503 30.2891C8.03799 32.7774 11.0368 34.6704 14.3006 35.5965C15.8726 36.0426 16.8298 36.1595 18.8842 36.1591C20.9022 36.1587 21.5194 36.0889 23.2029 35.6683C26.4269 34.8631 29.7088 32.8264 31.907 30.2675C34.5352 27.208 35.9646 23.5824 36.1046 19.6178C36.2253 16.2009 35.4573 13.1623 33.7326 10.2327C30.9258 5.46536 26.0751 2.37882 20.5157 1.82146C16.1133 1.38007 11.45 2.79622 7.99431 5.62328L8.05763 5.70068L7.99431 5.62328C7.33372 6.16373 5.93984 7.56514 5.42172 8.2098Z" stroke="black" stroke-width="0.2"/>
<path d="M17.2421 17.6565L17.2462 17.6391C17.3354 17.2694 17.577 17.1063 17.6932 17.0393M17.2421 17.6565L17.7431 17.1259M17.2421 17.6565L17.2441 17.6743C17.2449 17.6803 17.2455 17.6863 17.2462 17.6923C17.2543 17.7622 17.2628 17.8361 17.2991 17.9151C17.3388 18.0013 17.4075 18.0864 17.5253 18.1935C17.7587 18.4055 18.2161 18.7302 19.126 19.3441C19.1898 19.3872 19.2505 19.4279 19.3082 19.4667C19.4663 19.5727 19.6022 19.6639 19.7192 19.7472C19.8789 19.861 19.9971 19.956 20.0825 20.0478C20.1665 20.1381 20.2168 20.2235 20.2427 20.3184C20.2674 20.4092 20.2717 20.5156 20.2536 20.6535M17.2421 17.6565L17.3435 17.6626C17.3441 17.668 17.3447 17.6734 17.3453 17.6787C17.3806 17.9823 17.3887 18.0514 19.1819 19.2612C19.245 19.3038 19.3053 19.3442 19.3628 19.3828C20.1695 19.9241 20.4356 20.1026 20.3492 20.6923M17.6932 17.0393L17.7431 17.1259M17.6932 17.0393C17.6932 17.0393 17.6932 17.0393 17.6932 17.0393L17.7431 17.1259M17.6932 17.0393C17.7136 17.0275 17.7354 17.0229 17.7485 17.0205C17.764 17.0178 17.781 17.0161 17.7984 17.015C17.8333 17.0128 17.8776 17.0124 17.9288 17.0129C17.9945 17.0136 18.0763 17.0159 18.1708 17.0186C18.2232 17.02 18.2794 17.0216 18.339 17.0231C18.6756 17.0315 19.1313 17.0369 19.6509 17.0032L19.6586 17.0027L19.6586 17.003L21.3961 17.0246M17.7431 17.1259C17.7751 17.1075 17.9267 17.1117 18.1667 17.1185C18.5116 17.1282 19.0394 17.1431 19.6573 17.103L21.3999 17.1246L21.3961 17.0246M21.3961 17.0246L21.4962 17.0258L21.4243 15.1175M21.3961 17.0246L21.3244 15.1222M21.3244 15.1222C21.3244 15.1225 21.3244 15.1228 21.3244 15.1231L21.4243 15.1175M21.3244 15.1222L21.3244 15.1213L21.4243 15.1175M21.3244 15.1222C21.2373 13.5655 21.1858 13.1321 21.0317 12.5982L21.1278 12.5705L21.0317 12.5982C20.615 11.1541 19.7209 9.91565 18.4803 9.06444C17.2198 8.1995 16.0421 7.86463 14.4456 7.91928C11.2494 8.02883 8.61401 10.4857 8.2505 13.6979C7.90756 16.729 9.81143 19.7072 12.6884 20.643L12.6575 20.7379L12.6884 20.643C13.6356 20.9511 14.4838 20.9999 17.457 20.9001L20.1388 20.8101M21.4243 15.1175C21.3372 13.5612 21.2855 13.1169 21.1278 12.5705C20.7047 11.1041 19.7965 9.84629 18.5369 8.98198C17.258 8.10441 16.059 7.764 14.4422 7.81934C11.1957 7.93061 8.52013 10.426 8.15113 13.6867C7.80292 16.7644 9.73481 19.7875 12.6575 20.738C13.6241 21.0525 14.49 21.0997 17.4603 21L20.1907 20.9084M20.1907 20.9084L20.1101 20.8492L20.1388 20.8101M20.1907 20.9084L20.3492 20.6923M20.1907 20.9084L20.1874 20.8084L20.1388 20.8101M20.1388 20.8101L20.2536 20.6535M20.3492 20.6923L20.2502 20.6778C20.2514 20.6696 20.2525 20.6615 20.2536 20.6535M20.3492 20.6923L20.2685 20.6332L20.2536 20.6535" fill="url(#paint0_linear)" stroke="url(#paint1_linear)" stroke-width="0.2"/>
<defs>
<linearGradient id="paint0_linear" x1="19.5686" y1="13.8733" x2="6.9391" y2="13.8733" gradientUnits="userSpaceOnUse">
<stop stop-color="#27CAE1"/>
<stop offset="1" stop-color="#27E9E1"/>
</linearGradient>
<linearGradient id="paint1_linear" x1="18.2097" y1="17.2305" x2="8.53776" y2="8.99739" gradientUnits="userSpaceOnUse">
<stop stop-color="#27B9E1"/>
<stop offset="1" stop-color="#27E9E1"/>
</linearGradient>
</defs>
</svg>
